<svg width="42" height="42" viewBox="0 0 42 42" fill="none" xmlns="http://www.w3.org/2000/svg">
<path fill-rule="evenodd" clip-rule="evenodd" d="M17.5256 0.175746C11.0101 1.4593 5.45506 5.9767 2.35441 12.5131C-0.640566 18.8268 -0.787477 26.6459 1.96696 33.1324C2.95967 35.4703 5.60709 39.6729 6.08711 39.6729C6.15559 39.6729 7.65361 36.7871 9.41595 33.2602C11.1783 29.7333 14.3682 23.3512 16.5047 19.0783C18.6414 14.8051 20.3894 11.1994 20.3894 11.0656C20.3894 10.7119 18.5356 6.98999 18.3569 6.98496C18.2738 6.98261 15.3987 12.608 11.9676 19.486C5.03073 33.3918 5.68084 32.3874 4.96811 30.3011C4.09718 27.7524 3.91911 26.5683 3.91911 23.3267C3.91911 20.7441 3.96758 20.1036 4.25463 18.8839C4.96254 15.8758 5.98174 13.5784 7.62727 11.2807C14.2008 2.10224 26.8084 1.72804 33.8859 10.5013C38.3226 16.001 39.5066 23.8299 36.9402 30.6961C36.5438 31.7565 36.4169 31.9615 36.284 31.7568C36.1934 31.6172 33.3759 25.9881 30.023 19.2477C26.6701 12.5073 23.8583 6.98982 23.7744 6.98647C23.6907 6.98328 23.2428 7.75382 22.7789 8.69904C9.90515 34.9315 6.51971 41.8844 6.58534 41.9573C6.7181 42.1054 11.2659 40.4852 11.5305 40.1955C11.6669 40.0464 12.4711 38.5099 13.3177 36.7809C14.1644 35.052 14.946 33.6374 15.0547 33.6374C15.1636 33.6374 15.8156 33.7931 16.504 33.9836C17.3642 34.2215 18.4846 34.3593 20.0884 34.4245C22.6064 34.5269 24.2606 34.3558 26.1887 33.7933C26.8275 33.6069 27.367 33.4768 27.3876 33.5039C27.4082 33.5313 28.1806 35.1059 29.104 37.003L30.783 40.4523L33.0749 41.2383C35.4415 42.0499 35.7429 42.1218 35.7429 41.8743C35.7429 41.7942 35.447 41.134 35.0853 40.4074C33.9452 38.1169 31.9885 34.1306 28.1414 26.2607C24.05 17.8913 24.0431 17.8775 23.8857 17.8794C23.7726 17.8805 21.7442 21.9144 21.7442 22.1379C21.7442 22.2068 22.557 23.8704 23.5505 25.8347C25.1108 28.92 25.4964 29.7805 25.3191 29.7815C25.2985 29.7817 24.7057 29.8949 24.002 30.0328C22.0261 30.4205 18.2567 30.2999 17.0701 29.8109C16.8213 29.7084 17.1907 28.8735 20.2359 22.6548C22.1321 18.7827 23.7341 15.6256 23.7961 15.6389C23.858 15.6523 26.5408 20.9333 29.7578 27.3745C32.9749 33.8159 35.6725 39.2154 35.7525 39.3733C35.8325 39.5312 35.9908 39.6207 36.1043 39.5721C36.3617 39.4621 38.2341 36.8607 38.8682 35.7319C40.0632 33.605 41.1708 30.4983 41.7097 27.7607C42.1251 25.6507 42.0887 20.9387 41.6389 18.6009C40.7201 13.8244 38.9366 10.1831 35.8242 6.72912C32.9317 3.51908 29.9188 1.62913 25.8943 0.500154C24.5987 0.136683 23.9626 0.0659338 21.5184 0.0137938C19.575 -0.0277841 18.2954 0.0241882 17.5256 0.175746Z" fill="url(#paint0_linear_2_20)"/>
<defs>
<linearGradient id="paint0_linear_2_20" x1="21.0734" y1="1.57213e-10" x2="20.9824" y2="42" gradientUnits="userSpaceOnUse">
<stop stop-color="#2FC6E3"/>
<stop offset="1" stop-color="#B33FE0"/>
</linearGradient>
</defs>
</svg>
